<svg xmlns="http://www.w3.org/2000/svg" viewBox="0 0 472 472" width="472" height="472">
	<style>
		tspan { white-space:pre }
		.shp0 { fill: #ffffff } 
		.shp1 { fill: #ff0000 } 
		.txt2 { font-size: 144px;fill: #ffffff;font-family: "Mistral";font-weight: 400 } 
	</style>
	<g id="Layer">
		<g id="Layer">
			<path id="Layer" class="shp0" d="M222.02,137.18c0,17.67 -14.33,32 -32,32c-17.67,0 -32,-14.33 -32,-32c0,-17.67 14.33,-32 32,-32c17.67,0 32,14.33 32,32zM206.02,137.18c0,-8.84 -7.16,-16 -16,-16v0.08c-8.81,0 -15.96,7.11 -16,15.92c0,8.84 7.16,16 16,16c8.84,0 16,-7.16 16,-16z" />
			<g id="文件夹 63">
			</g>
		</g>
	</g>
	<g id="Layer">
		<g id="Layer">
			<path id="Layer" class="shp0" d="M313.54,137.18c0,17.67 -14.33,32 -32,32c-17.67,0 -32,-14.33 -32,-32c0,-17.67 14.33,-32 32,-32c17.67,0 32,14.33 32,32zM297.54,137.18c0,-8.84 -7.16,-16 -16,-16v0.08c-8.81,0 -15.96,7.11 -16,15.92c0,8.84 7.16,16 16,16c8.84,0 16,-7.16 16,-16z" />
		</g>
	</g>
	<g id="Layer">
		<g id="Layer">
			<path id="Layer" class="shp0" d="M290.18,241.82h-108.8c-24.56,0 -50.64,-12.88 -53.04,-48l0.08,-0.4c-18.99,-3.42 -33.62,-18.68 -36.25,-37.79c-3.35,-24.38 13.7,-46.86 38.09,-50.21c6.88,-26.24 29.6,-36.16 51.2,-36.16h46.32v-17.2c-8.3,-2.61 -14.8,-9.11 -17.41,-17.41c-4.42,-14.03 3.38,-28.99 17.41,-33.41c14.03,-4.42 28.99,3.38 33.41,17.41c4.42,14.03 -3.38,28.99 -17.41,33.41v17.6h46.4c30.56,0 45.76,16.64 51.04,36.16c19.13,2.59 34.42,17.2 37.87,36.19c4.4,24.21 -11.66,47.41 -35.87,51.81c-1.84,24 -16.48,48 -53.04,48zM128.1,123.1c-9.39,2.72 -16.74,10.06 -19.45,19.45c-4.37,15.11 4.34,30.9 19.45,35.27zM246.42,27.1c0,-5.88 -4.76,-10.64 -10.64,-10.64c-5.88,0 -10.64,4.76 -10.64,10.64c0,5.88 4.76,10.64 10.64,10.64c5.88,0 10.64,-4.76 10.64,-10.64zM327.46,123.1c0,-13.92 -4.8,-37.28 -37.28,-37.28h-108.8c-13.92,0 -37.28,4.8 -37.28,37.28l0.08,64.96c0,32.4 23.36,37.28 37.28,37.28h108.72c32.4,0 37.28,-23.36 37.28,-37.28zM343.14,122.54v54.72c12.2,-3.52 20.6,-14.67 20.64,-27.36c-0.04,-12.69 -8.44,-23.84 -20.64,-27.36z" />
		</g>
	</g>
	<g id="Layer">
		<g id="Layer">
			<path id="Layer" class="shp0" d="M281.54,190.94h-91.52c-4.42,0 -8,3.58 -8,8c0,4.42 3.58,8 8,8h91.52c4.42,0 8,-3.58 8,-8c0,-4.42 -3.58,-8 -8,-8z" />
		</g>
	</g>
	<g id="Layer">
		<g id="Layer">
			<path id="Layer" class="shp0" d="M390.58,347.38c13.53,3.61 22.97,15.83 23.04,29.84v14.24c0,4.42 -3.58,8 -8,8c-4.42,0 -8,-3.58 -8,-8v-14.24c-0.01,-8.3 -6.73,-15.02 -15.03,-15.03c-8.31,-0.01 -15.05,6.72 -15.05,15.03v14.24c0,4.42 -3.58,8 -8,8c-4.42,0 -8,-3.58 -8,-8v-14.24c0.07,-14.01 9.51,-26.23 23.04,-29.84v-59.76c-10.16,-2.74 -18.24,-10.45 -21.44,-20.48l-13.36,2.64v98.72c-0.11,14.44 -3.25,28.69 -9.2,41.84l-0.4,0.88c-10.42,23.11 -28.93,41.61 -52.03,52.03c-52.36,23.62 -113.95,0.32 -137.57,-52.03v-0.72c-5.89,-13.22 -8.94,-27.53 -8.96,-42v-98.72l-13.36,-2.64c-3.2,10.03 -11.28,17.74 -21.44,20.48v59.76c13.53,3.61 22.97,15.83 23.04,29.84v14.24c0,4.42 -3.58,8 -8,8c-4.42,0 -8,-3.58 -8,-8v-14.24c0,-8.31 -6.73,-15.04 -15.04,-15.04c-8.31,0 -15.04,6.73 -15.04,15.04v14.24c0,4.42 -3.58,8 -8,8c-4.42,0 -8,-3.58 -8,-8v-14.16c0.07,-14.01 9.51,-26.23 23.04,-29.84v-59.76c-11.27,-2.97 -19.92,-12 -22.41,-23.39c-3.66,-16.75 6.95,-33.29 23.7,-36.95c16.75,-3.66 33.29,6.95 36.95,23.7l21.36,4.16h190.72l21.36,-4.16c3.23,-13.97 15.62,-23.91 29.96,-24.04c17.14,-0.15 31.16,13.62 31.32,30.76c-0.09,14.05 -9.6,26.29 -23.2,29.84zM88.82,242.74c-8.31,0 -15.04,6.73 -15.04,15.04c0,8.31 6.73,15.04 15.04,15.04c8.31,0 15.04,-6.73 15.04,-15.04c0,-8.31 -6.73,-15.04 -15.04,-15.04zM310.1,415.7h-148.64c16.14,25.45 44.18,40.88 74.32,40.88c30.14,0 58.18,-15.43 74.32,-40.88zM323.78,271.22h-176.16v97.36c0.04,10.67 2.02,21.24 5.84,31.2h164.48c3.82,-9.96 5.8,-20.53 5.84,-31.2zM382.58,242.5c-8.31,0 -15.04,6.73 -15.04,15.04c0,8.31 6.73,15.04 15.04,15.04l0.16,0.24c0.03,0 0.06,0 0.08,0c8.31,-0.13 14.93,-6.97 14.8,-15.28c0,-8.31 -6.73,-15.04 -15.04,-15.04z" />
		</g>
	</g>
	<g id="Layer">
		<g id="Layer">
			<path id="形状 60" class="shp1" d="M244.58,-80.52l-0.45,-0.45c-0.01,0 -0.02,-0.01 -0.03,-0.01c0,0 -0.01,0.01 -0.02,0.01l-0.05,0.05c0,0.01 -0.01,0.01 -0.01,0.02c0,0.01 0.01,0.02 0.01,0.02l0.39,0.38l-0.39,0.38c0,0 -0.01,0.01 -0.01,0.02c0,0.01 0.01,0.01 0.01,0.02l0.05,0.05c0.01,0.01 0.02,0.01 0.02,0.01c0.01,0 0.02,0 0.03,-0.01l0.45,-0.45c0.01,0 0.01,-0.01 0.01,-0.02c0,-0.01 0,-0.01 -0.01,-0.02zM244.96,-80.52l-0.46,-0.45c0,0 -0.01,-0.01 -0.02,-0.01c-0.01,0 -0.02,0.01 -0.02,0.01l-0.05,0.05c-0.01,0.01 -0.01,0.01 -0.01,0.02c0,0.01 0,0.02 0.01,0.02l0.38,0.38l-0.38,0.38c-0.01,0 -0.01,0.01 -0.01,0.02c0,0.01 0,0.01 0.01,0.02l0.05,0.05c0,0.01 0.01,0.01 0.02,0.01c0.01,0 0.02,0 0.02,-0.01l0.46,-0.45c0.01,0 0.01,-0.01 0.01,-0.02c0,-0.01 0,-0.01 -0.01,-0.02z" />
			<path id="形状 61" class="shp1" d="M-145.42,-89.52l-0.45,-0.45c-0.01,0 -0.02,-0.01 -0.03,-0.01c0,0 -0.01,0.01 -0.02,0.01l-0.05,0.05c0,0.01 -0.01,0.01 -0.01,0.02c0,0.01 0.01,0.02 0.01,0.02l0.39,0.38l-0.39,0.38c0,0 -0.01,0.01 -0.01,0.02c0,0.01 0.01,0.01 0.01,0.02l0.05,0.05c0.01,0.01 0.02,0.01 0.02,0.01c0.01,0 0.02,0 0.03,-0.01l0.45,-0.45c0.01,0 0.01,-0.01 0.01,-0.02c0,-0.01 0,-0.01 -0.01,-0.02zM-145.04,-89.52l-0.46,-0.45c0,0 -0.01,-0.01 -0.02,-0.01c-0.01,0 -0.02,0.01 -0.02,0.01l-0.05,0.05c-0.01,0.01 -0.01,0.01 -0.01,0.02c0,0.01 0,0.02 0.01,0.02l0.38,0.38l-0.38,0.38c-0.01,0 -0.01,0.01 -0.01,0.02c0,0.01 0,0.01 0.01,0.02l0.05,0.05c0,0.01 0.01,0.01 0.02,0.01c0.01,0 0.02,0 0.02,-0.01l0.46,-0.45c0.01,0 0.01,-0.01 0.01,-0.02c0,-0.01 0,-0.01 -0.01,-0.02z" />
			<path id="形状 62" class="shp1" d="M-129.42,-86.52l-0.45,-0.45c-0.01,0 -0.02,-0.01 -0.03,-0.01c0,0 -0.01,0.01 -0.02,0.01l-0.05,0.05c0,0.01 -0.01,0.01 -0.01,0.02c0,0.01 0.01,0.02 0.01,0.02l0.39,0.38l-0.39,0.38c0,0 -0.01,0.01 -0.01,0.02c0,0.01 0.01,0.01 0.01,0.02l0.05,0.05c0.01,0.01 0.02,0.01 0.02,0.01c0.01,0 0.02,0 0.03,-0.01l0.45,-0.45c0.01,0 0.01,-0.01 0.01,-0.02c0,-0.01 0,-0.01 -0.01,-0.02zM-129.04,-86.52l-0.46,-0.45c0,0 -0.01,-0.01 -0.02,-0.01c-0.01,0 -0.02,0.01 -0.02,0.01l-0.05,0.05c-0.01,0.01 -0.01,0.01 -0.01,0.02c0,0.01 0,0.02 0.01,0.02l0.38,0.38l-0.38,0.38c-0.01,0 -0.01,0.01 -0.01,0.02c0,0.01 0,0.01 0.01,0.02l0.05,0.05c0,0.01 0.01,0.01 0.02,0.01c0.01,0 0.02,0 0.02,-0.01l0.46,-0.45c0.01,0 0.01,-0.01 0.01,-0.02c0,-0.01 0,-0.01 -0.01,-0.02z" />
		</g>
	</g>
	<g id="Layer">
	</g>
	<g id="Layer">
	</g>
	<g id="Layer">
	</g>
	<g id="Layer">
	</g>
	<g id="Layer">
	</g>
	<g id="Layer">
	</g>
	<g id="Layer">
	</g>
	<g id="Layer">
	</g>
	<g id="Layer">
	</g>
	<g id="Layer">
	</g>
	<g id="Layer">
	</g>
	<g id="Layer">
	</g>
	<g id="Layer">
	</g>
	<g id="Layer">
	</g>
	<g id="Layer">
		<text id="D " style="transform: matrix(1,0,0,1,203,380)" >
			<tspan x="0" y="0" class="txt2">D</tspan>
		</text>
	</g>
</svg>